<svg width="37" height="33" viewBox="0 0 37 33" fill="#f1222a" xmlns="http://www.w3.org/2000/svg">
<path d="M35.4509 0H33.8795H2.45089H0.879464C0.44575 0 0.09375 0.352 0.09375 0.785714C0.09375 1.21943 0.44575 1.57143 0.879464 1.57143H1.66518V21.2143C1.66518 21.648 2.01718 22 2.45089 22H17.3795V28.4303C16.4665 28.7556 15.808 29.6199 15.808 30.6429C15.808 31.9424 16.8656 33 18.1652 33C19.4648 33 20.5223 31.9424 20.5223 30.6429C20.5223 29.6199 19.8639 28.7556 18.9509 28.4303V22H33.8795C34.3132 22 34.6652 21.648 34.6652 21.2143V1.57143H35.4509C35.8846 1.57143 36.2366 1.21943 36.2366 0.785714C36.2366 0.352 35.8846 0 35.4509 0ZM18.1652 31.4286C17.7315 31.4286 17.3795 31.0766 17.3795 30.6429C17.3795 30.2091 17.7315 29.8571 18.1652 29.8571C18.5989 29.8571 18.9509 30.2091 18.9509 30.6429C18.9509 31.0766 18.5989 31.4286 18.1652 31.4286Z" fill="#f1222a"/>
<circle cx="11.5648" cy="11.7855" r="6.6" fill="white"/>
<rect x="20.0508" y="7.07227" width="11.3143" height="1.88571" rx="0.942857" fill="white"/>
<rect x="20.0508" y="10.8438" width="11.3143" height="1.88571" rx="0.942857" fill="white"/>
<rect x="20.0508" y="14.6152" width="11.3143" height="1.88571" rx="0.942857" fill="white"/>
</svg>