<svg width="41" height="40" viewBox="0 0 41 40" fill="none" xmlns="http://www.w3.org/2000/svg">
<path d="M38.0065 14.8782L22.316 10.1915C21.461 9.93615 20.5385 9.93615 19.6841 10.1915L3.9931 14.8782C2.66897 15.2736 2.66897 16.976 3.9931 17.3714L6.72855 18.1884C6.12836 18.9098 5.75935 19.7897 5.72279 20.7533C5.1811 21.0551 4.79973 21.5998 4.79973 22.2501C4.79973 22.8396 5.11923 23.3356 5.57935 23.6528L4.14329 29.9352C4.01841 30.4816 4.44591 31 5.02135 31H8.17755C8.75355 31 9.18106 30.4816 9.05618 29.9352L7.62011 23.6528C8.08024 23.3356 8.39974 22.8396 8.39974 22.2501C8.39974 21.6173 8.0358 21.088 7.51886 20.7806C7.56161 19.9592 7.99361 19.233 8.68268 18.7725L19.6835 22.0587C20.1932 22.2107 21.1708 22.4004 22.3155 22.0587L38.0065 17.372C39.3312 16.976 39.3312 15.2742 38.0065 14.8782ZM22.8442 23.7315C21.2394 24.2106 19.872 23.9459 19.1548 23.7315L10.9974 21.2952L10.1997 27.5C10.1997 29.4332 15.035 31 20.9998 31C26.9646 31 31.7998 29.4332 31.7998 27.5L31.0022 21.2947L22.8442 23.7315Z" fill="#f1222a"/>
</svg>