<svg width="41" height="40" viewBox="0 0 41 40" fill="none" xmlns="http://www.w3.org/2000/svg">
<path fill-rule="evenodd" clip-rule="evenodd" d="M23.5565 24.8285C26.033 21.6391 28.2 17.5445 28.2 13.1273C28.2 11.084 27.5338 9.17292 26.3742 7.82891C25.2786 6.55899 23.5849 5.6 21 5.6C18.415 5.6 16.7213 6.55899 15.6257 7.82891C14.4662 9.17292 13.8 11.084 13.8 13.1273C13.8 17.5445 15.967 21.6391 18.4434 24.8285C19.3337 25.9751 20.227 26.9567 21 27.7382C21.7729 26.9567 22.6662 25.9751 23.5565 24.8285ZM21 32.6C21 32.6 31.8 24.2545 31.8 13.1273C31.8 7.56365 28.2 2 21 2C13.8 2 10.2 7.56365 10.2 13.1273C10.2 24.2545 21 32.6 21 32.6Z" fill="#f1222a"/>
<path fill-rule="evenodd" clip-rule="evenodd" d="M21 18.1999C23.9824 18.1999 26.4 15.7822 26.4 12.7999C26.4 9.81758 23.9824 7.3999 21 7.3999C18.0176 7.3999 15.6 9.81758 15.6 12.7999C15.6 15.7822 18.0176 18.1999 21 18.1999ZM21 15.1142C22.2782 15.1142 23.3142 14.0781 23.3142 12.7999C23.3142 11.5218 22.2782 10.4856 21 10.4856C19.7218 10.4856 18.6857 11.5218 18.6857 12.7999C18.6857 14.0781 19.7218 15.1142 21 15.1142Z" fill="#f1222a"/>
<path fill-rule="evenodd" clip-rule="evenodd" d="M30.0094 24.8265C30.3262 23.8842 31.347 23.3771 32.2893 23.6939C34.0898 24.2995 35.6846 25.0841 36.8654 26.0595C38.0361 27.0266 39 28.3612 39 30.0287C39 31.5693 38.1738 32.8299 37.1316 33.7684C36.0891 34.7074 34.6817 35.4706 33.096 36.0747C29.912 37.2876 25.635 38.0002 21 38.0002C16.3651 38.0002 12.088 37.2876 8.90408 36.0747C7.31839 35.4706 5.91102 34.7074 4.86844 33.7684C3.82629 32.8299 3 31.5693 3 30.0287C3 28.3754 3.94813 27.0488 5.10438 26.0847C6.26949 25.1131 7.84292 24.3306 9.61911 23.7251C10.56 23.4043 11.5829 23.9069 11.9037 24.8479C12.2245 25.7888 11.7218 26.8115 10.7809 27.1325C9.24284 27.6568 8.11627 28.2605 7.40993 28.8495C6.69474 29.4458 6.6 29.8545 6.6 30.0287C6.6 30.1925 6.68034 30.5554 7.27771 31.0934C7.87466 31.6311 8.83975 32.1979 10.1857 32.7105C12.865 33.7313 16.688 34.4002 21 34.4002C25.3121 34.4002 29.135 33.7313 31.8144 32.7105C33.1603 32.1979 34.1255 31.6311 34.7223 31.0934C35.3198 30.5554 35.4 30.1925 35.4 30.0287C35.4 29.853 35.3034 29.4387 34.5726 28.8351C33.852 28.2397 32.7045 27.6316 31.142 27.1064C30.1997 26.7894 29.6926 25.7688 30.0094 24.8265Z" fill="#f1222a"/>
</svg>