<svg width="41" height="40" viewBox="0 0 41 40" fill="none" xmlns="http://www.w3.org/2000/svg">
<path d="M33.8333 3.3335H13.8333C11.9933 3.3335 10.5 4.82683 10.5 6.66683V26.6668C10.5 28.5068 11.9933 30.0002 13.8333 30.0002H33.8333C35.6733 30.0002 37.1667 28.5068 37.1667 26.6668V6.66683C37.1667 4.82683 35.6733 3.3335 33.8333 3.3335ZM22.2783 24.1352L16.8217 18.6785L19.1783 16.3218L22.055 19.1985L29.22 10.6002L31.7817 12.7352L22.2783 24.1352Z" fill="#f1222a"/>
<path d="M7.16659 36.6668H25.4999V33.3335H7.16659V13.3335H3.83325V33.3335C3.83325 35.1718 5.32825 36.6668 7.16659 36.6668Z" fill="#f1222a"/>
</svg>