<svg width="25" height="24" viewBox="0 0 25 24" fill="none" xmlns="http://www.w3.org/2000/svg">
<path d="M21.5 5.99991H16.5V4.32991C16.4765 3.68973 16.2002 3.08497 15.7316 2.64821C15.2629 2.21144 14.6402 1.97831 14 1.99991H11C10.3598 1.97831 9.73706 2.21144 9.26843 2.64821C8.7998 3.08497 8.52346 3.68973 8.5 4.32991V5.99991H3.5C3.23478 5.99991 2.98043 6.10527 2.79289 6.29281C2.60536 6.48034 2.5 6.7347 2.5 6.99991C2.5 7.26513 2.60536 7.51948 2.79289 7.70702C2.98043 7.89456 3.23478 7.99991 3.5 7.99991H4.5V18.9999C4.5 19.7956 4.81607 20.5586 5.37868 21.1212C5.94129 21.6838 6.70435 21.9999 7.5 21.9999H17.5C18.2956 21.9999 19.0587 21.6838 19.6213 21.1212C20.1839 20.5586 20.5 19.7956 20.5 18.9999V7.99991H21.5C21.7652 7.99991 22.0196 7.89456 22.2071 7.70702C22.3946 7.51948 22.5 7.26513 22.5 6.99991C22.5 6.7347 22.3946 6.48034 22.2071 6.29281C22.0196 6.10527 21.7652 5.99991 21.5 5.99991ZM10.5 4.32991C10.5 4.16991 10.71 3.99991 11 3.99991H14C14.29 3.99991 14.5 4.16991 14.5 4.32991V5.99991H10.5V4.32991ZM18.5 18.9999C18.5 19.2651 18.3946 19.5195 18.2071 19.707C18.0196 19.8946 17.7652 19.9999 17.5 19.9999H7.5C7.23478 19.9999 6.98043 19.8946 6.79289 19.707C6.60536 19.5195 6.5 19.2651 6.5 18.9999V7.99991H18.5V18.9999Z" fill="#222222"/>
<path d="M9.5 17C9.76522 17 10.0196 16.8946 10.2071 16.7071C10.3946 16.5196 10.5 16.2652 10.5 16V12C10.5 11.7348 10.3946 11.4804 10.2071 11.2929C10.0196 11.1054 9.76522 11 9.5 11C9.23478 11 8.98043 11.1054 8.79289 11.2929C8.60536 11.4804 8.5 11.7348 8.5 12V16C8.5 16.2652 8.60536 16.5196 8.79289 16.7071C8.98043 16.8946 9.23478 17 9.5 17ZM15.5 17C15.7652 17 16.0196 16.8946 16.2071 16.7071C16.3946 16.5196 16.5 16.2652 16.5 16V12C16.5 11.7348 16.3946 11.4804 16.2071 11.2929C16.0196 11.1054 15.7652 11 15.5 11C15.2348 11 14.9804 11.1054 14.7929 11.2929C14.6054 11.4804 14.5 11.7348 14.5 12V16C14.5 16.2652 14.6054 16.5196 14.7929 16.7071C14.9804 16.8946 15.2348 17 15.5 17Z" fill="#222222"/>
</svg>
